<?xml version="1.0" encoding="iso-8859-1"?>
<!-- Generator: Adobe Illustrator 23.0.3, SVG Export Plug-In . SVG Version: 6.00 Build 0)  -->
<svg fill="#FFFFFF" version="1.1" xmlns="http://www.w3.org/2000/svg" xmlns:xlink="http://www.w3.org/1999/xlink" x="0px" y="0px"
	 viewBox="0 0 50 50" style="enable-background:new 0 0 50 50;" xml:space="preserve">
<g id="Layer_10" style="display:none;">
</g>
<g id="filled">
</g>
<g id="outlined">
</g>
<g id="rounded">
</g>
<g id="two_x5F_tone">
</g>
<g id="sharp">
</g>
<g id="win10">
</g>
<g id="ios_x5F_out">
</g>
<g id="ios_x5F_filled">
	<g>
		<path d="M20.73,34.64c0.62-1.23,0.14-2.74-1.09-3.37l-3.32-1.7C16.96,29.2,17.71,29,18.5,29c2.49,0,4.5,2.01,4.5,4.5
			S20.99,38,18.5,38c-2.31,0-4.21-1.74-4.47-3.98l3.33,1.71C17.73,35.91,18.11,36,18.5,36C19.41,36,20.28,35.5,20.73,34.64z"/>
	</g>
	<g>
		<path d="M31.5,14c-3.58,0-6.5,2.92-6.5,6.5s2.92,6.5,6.5,6.5s6.5-2.92,6.5-6.5S35.08,14,31.5,14z M31.5,25
			c-2.49,0-4.5-2.01-4.5-4.5s2.01-4.5,4.5-4.5s4.5,2.01,4.5,4.5S33.99,25,31.5,25z"/>
	</g>
	<g>
		<path d="M47,25c0,12.15-9.85,22-22,22C14.05,47,4.97,39,3.28,28.52L12.02,33C12.01,33.17,12,33.33,12,33.5
			c0,3.59,2.91,6.5,6.5,6.5s6.5-2.91,6.5-6.5v-0.05c0.6-0.39,1.35-0.84,2.13-1.32c1.62-0.97,3.43-2.07,4.83-3.15
			C36.43,28.74,40,25.03,40,20.5c0-4.69-3.81-8.5-8.5-8.5c-4.53,0-8.24,3.57-8.48,8.04c-1.08,1.4-2.18,3.22-3.16,4.83
			c-0.47,0.78-0.92,1.53-1.31,2.13H18.5c-1.6,0-3.07,0.58-4.2,1.53L3.11,22.8C4.21,11.68,13.59,3,25,3C37.15,3,47,12.85,47,25z"/>
	</g>
</g>
<g id="color">
</g>
</svg>